<?xml version="1.0" encoding="utf-8"?>
<!-- Generator: Adobe Illustrator 18.1.1, SVG Export Plug-In . SVG Version: 6.00 Build 0)  -->
<svg version="1.1" id="Layer_1" xmlns="http://www.w3.org/2000/svg" xmlns:xlink="http://www.w3.org/1999/xlink" x="0px" y="0px"
	 viewBox="784 29.3 20 20" enable-background="new 784 29.3 20 20" xml:space="preserve">
<path fill="#333333" d="M804,47.6l-5.3-5.3c0.9-1.3,1.5-2.9,1.5-4.6c0-4.5-3.6-8.1-8.1-8.1c-4.5,0-8.1,3.6-8.1,8.1
	c0,4.5,3.6,8.1,8.1,8.1c2,0,3.9-0.8,5.3-2l5.2,5.2L804,47.6z M792.1,43.8c-3.4,0-6.1-2.7-6.1-6.1c0-3.4,2.7-6.1,6.1-6.1
	c3.4,0,6.1,2.7,6.1,6.1C798.2,41.1,795.5,43.8,792.1,43.8z"/>
</svg>
