<svg id="Layer_1" data-name="Layer 1" xmlns="http://www.w3.org/2000/svg" viewBox="0 0 1500 1500"><defs><style>.cls-1{fill:#433d3f;}</style></defs><title>icons-epi</title><path class="cls-1" d="M1127.18,706.81c-8.81-7.18-82.44-65.49-161.21-127.9a16.75,16.75,0,0,0-20.8,26.25c78.63,62.3,152.73,121,160.81,127.6,13.72,11.66,18.42,20.28,18.71,34.05-.29,13.74-5,22.33-18.71,34-32,26.08-260.64,205.71-295.21,234-10.37,8.55-20.05,11.9-25.78,11.78-5.09-.25-7.45-1.24-11-5.75s-6.9-14.27-7-30c-.09-11.26-.17-27.85-.17-47.08A16.74,16.74,0,0,0,750.11,947H465.68a7,7,0,0,1-7-7V592.55a7,7,0,0,1,7-7H750.05a16.78,16.78,0,0,0,16.75-16.66c.08-18.88.13-35.22.22-46.22.09-15.95,3.48-26.08,6.87-30.89,3.59-4.71,5.63-5.55,10.43-5.84,5.42-.14,15.26,3.26,26.34,12.61,2.13,1.8,45.28,36,82.5,65.45A16.75,16.75,0,0,0,914,537.74h0c-36.77-29.12-81.28-64.42-81.73-64.81-15.14-12.55-31.07-20.33-47.91-20.48a45.35,45.35,0,0,0-38.08,20.44c-8.67,12.83-12.5,29.35-12.71,49.5-.06,7.72-.11,17.9-.15,29.67H465.68a40.51,40.51,0,0,0-40.49,40.5V940a40.5,40.5,0,0,0,40.49,40.49h267.7c0,12.18.09,22.68.15,30.6.2,20.18,4.28,36.68,13.28,49.33a46.2,46.2,0,0,0,37.42,19.69H785c16.66-.12,32.45-7.59,47-19.37,33.86-27.76,262.57-207.45,295.18-234,18.57-14.74,31.32-35.4,31-60C1158.48,742.22,1145.75,721.52,1127.18,706.81Z"/></svg>