<?xml version="1.0" encoding="UTF-8"?>
<svg width="34px" height="34px" viewBox="0 0 34 34" version="1.1" xmlns="http://www.w3.org/2000/svg" xmlns:xlink="http://www.w3.org/1999/xlink">
    <!-- Generator: Sketch 48.2 (47327) - http://www.bohemiancoding.com/sketch -->
    <title>Contact us icon</title>
    <desc>Created with Sketch.</desc>
    <defs></defs>
    <g id="Follow-Ericsson-Networks-+-contact-us-icon" stroke="none" stroke-width="1" fill="none" fill-rule="evenodd" transform="translate(-928.000000, -331.000000)">
        <g id="Contact-us-icon" transform="translate(928.000000, 331.000000)">
            <g id="Group-2" fill="#002B5E">
                <g id="Group-2-Copy">
                    <circle id="Oval" cx="17" cy="17" r="17"></circle>
                </g>
            </g>
            <g id="mail-(1)" transform="translate(7.000000, 9.000000)" fill="#FFFFFF" fill-rule="nonzero">
                <path d="M18.6982422,0 L1.80175781,0 C0.806266602,0 0,0.839133333 0,1.86363636 L0,13.0454545 C0,14.0760455 0.812192383,14.9090909 1.80175781,14.9090909 L18.6982422,14.9090909 C19.6854053,14.9090909 20.5,14.0795657 20.5,13.0454545 L20.5,1.86363636 C20.5,0.840955556 19.6969365,0 18.6982422,0 Z M18.445916,1.24242424 C18.0777969,1.62115657 11.7427764,8.13924545 11.524043,8.3642899 C11.1837109,8.7163101 10.7312695,8.91012828 10.25,8.91012828 C9.76873047,8.91012828 9.31628906,8.71626869 8.97483594,8.3631303 C8.82773242,8.21176162 2.56262012,1.76565051 2.05408398,1.24242424 L18.445916,1.24242424 Z M1.20117188,12.7925798 L1.20117188,2.11729798 L6.39175586,7.45785859 L1.20117188,12.7925798 Z M2.05484473,13.6666667 L7.24338672,8.33405758 L8.1266084,9.24280808 C8.69380176,9.82948081 9.44789746,10.1525525 10.25,10.1525525 C11.0521025,10.1525525 11.8061982,9.82948081 12.3722705,9.24396768 L13.2566133,8.33405758 L18.4451553,13.6666667 L2.05484473,13.6666667 Z M19.2988281,12.7925798 L14.1082441,7.45785859 L19.2988281,2.11729798 L19.2988281,12.7925798 Z" id="Shape"></path>
            </g>
        </g>
    </g>
</svg>