<svg xmlns="http://www.w3.org/2000/svg" width="40" height="40" viewBox="4 4 40 40"><g fill="#999"><path d="M24 4C12.954 4 4 12.955 4 24c0 11.046 8.954 20 20 20s20-8.953 20-20c0-11.045-8.954-20-20-20zm.024 38.904c-10.493 0-19-8.507-19-19s8.507-19 19-19c10.492 0 19 8.507 19 19s-8.506 19-19 19z"/><path d="M32.533 21.91h-6.438l.008-6.556c-.026-.453-.22-1.35-1.327-1.352L23.203 14c-1.177 0-1.278 1.16-1.284 1.465l-.01 6.443h-6.59c-1.216 0-1.32.938-1.324 1.206v1.803c.006.246.107 1.174 1.324 1.174h6.58l-.007 6.586c-.002 1.215.936 1.32 1.205 1.326H24.9c.247-.004 1.175-.105 1.177-1.32l.01-6.586h6.56c.45-.027 1.35-.222 1.35-1.328V23.19c0-1.177-1.165-1.275-1.47-1.28z"/></g></svg>