<?xml version="1.0" encoding="UTF-8"?>
<svg width="32px" height="32px" viewBox="0 0 32 32" version="1.1" xmlns="http://www.w3.org/2000/svg" xmlns:xlink="http://www.w3.org/1999/xlink">
    <!-- Generator: Sketch 47.1 (45422) - http://www.bohemiancoding.com/sketch -->
    <title>Page 1</title>
    <desc>Created with Sketch.</desc>
    <defs>
        <polygon id="path-1" points="15.993594 32 31.987176 32 31.987176 0.0125842697 15.993594 0.0125842697 1.19850187e-05 0.0125842697 1.19850187e-05 32 15.993594 32"></polygon>
    </defs>
    <g id="Page-1" stroke="none" stroke-width="1" fill="none" fill-rule="evenodd">
        <g id="Follow-Ericsson-Networks-all-icons" transform="translate(-747.000000, -332.000000)">
            <g id="Page-1" transform="translate(747.000000, 332.000000)">
                <g id="Group-3">
                    <mask id="mask-2" fill="white">
                        <use xlink:href="#path-1"></use>
                    </mask>
                    <g id="Clip-2"></g>
                    <path d="M30.2217948,32 C31.1966562,32 31.987188,31.2094682 31.987188,30.2346067 L31.987188,1.77809738 C31.987188,0.802876404 31.1966562,0.0125842697 30.2217948,0.0125842697 L1.76540524,0.0125842697 C0.79018427,0.0125842697 1.19850187e-05,0.802876404 1.19850187e-05,1.77809738 L1.19850187e-05,30.2346067 C1.19850187e-05,31.2094682 0.79018427,32 1.76540524,32 L30.2217948,32 Z" id="Fill-1" fill="#3C5A99" mask="url(#mask-2)"></path>
                </g>
                <path d="M21.4731035,32 L21.4731035,19.4886135 L25.5165963,19.4886135 L26.1219606,14.6126167 L21.4731035,14.6126167 L21.4731035,11.4995082 C21.4731035,10.0877934 21.8504946,9.12578873 23.7996882,9.12578873 L26.2857143,9.12457821 L26.2857143,4.76353897 C25.8556423,4.70422322 24.3799941,4.57142857 22.6632025,4.57142857 C19.0789194,4.57142857 16.6251779,6.84370602 16.6251779,11.0167506 L16.6251779,14.6126167 L12.5714286,14.6126167 L12.5714286,19.4886135 L16.6251779,19.4886135 L16.6251779,32 L21.4731035,32 Z" id="Fill-4" fill="#FEFEFE"></path>
            </g>
        </g>
    </g>
</svg>