<svg id="Layer_1" data-name="Layer 1" xmlns="http://www.w3.org/2000/svg" viewBox="0 0 1500 1500"><defs><style>.cls-1{fill:#433d3f;}</style></defs><title>icons-epi</title><path class="cls-1" d="M1092.21,993.14,961.35,862.28a297.53,297.53,0,0,0-26.48-338.7,16.18,16.18,0,1,0-25,20.5A264.12,264.12,0,0,1,969.75,712C969.49,858.51,851,977,704.47,977.28,558,977,439.47,858.51,439.22,712,439.47,565.5,558,447,704.47,446.74a264.16,264.16,0,0,1,163,56,16.18,16.18,0,0,0,19.91-25.5l0,0a296.57,296.57,0,0,0-182.93-62.83C540.1,414.4,406.87,547.63,406.86,712s133.25,297.61,297.62,297.63a296.2,296.2,0,0,0,144-37.17l132.18,132.17a78.86,78.86,0,1,0,111.54-111.5ZM704.48,548.37a16.87,16.87,0,1,0,16.88,16.87A16.88,16.88,0,0,0,704.48,548.37ZM687.65,622V858.14c0,9.61,7.22,17.29,16.83,17.29a17.14,17.14,0,0,0,16.83-17.29V622c0-9.61-7.21-17.3-16.83-17.3A17.15,17.15,0,0,0,687.65,622Z"/></svg>