<?xml version="1.0" encoding="UTF-8"?>
<svg width="32px" height="32px" viewBox="0 0 32 32" version="1.1" xmlns="http://www.w3.org/2000/svg" xmlns:xlink="http://www.w3.org/1999/xlink">
    <!-- Generator: Sketch 47.1 (45422) - http://www.bohemiancoding.com/sketch -->
    <title>Page 1</title>
    <desc>Created with Sketch.</desc>
    <defs>
        <polygon id="path-1" points="31.7801931 31.9999556 31.7801931 0 2.20689655e-05 0 2.20689655e-05 31.9999556 31.7801931 31.9999556"></polygon>
    </defs>
    <g id="Page-1" stroke="none" stroke-width="1" fill="none" fill-rule="evenodd">
        <g id="Follow-Ericsson-Networks-all-icons" transform="translate(-591.000000, -332.000000)">
            <g id="Page-1" transform="translate(591.000000, 332.000000)">
                <mask id="mask-2" fill="white">
                    <use xlink:href="#path-1"></use>
                </mask>
                <g id="Clip-2"></g>
                <path d="M27.0804083,27.2681778 L22.3700083,27.2681778 L22.3700083,19.8417333 C22.3700083,18.0706222 22.3377876,15.7926222 19.9205738,15.7926222 C17.4680497,15.7926222 17.0915531,17.7217333 17.0915531,19.7135111 L17.0915531,27.2681778 L12.3820359,27.2681778 L12.3820359,11.9966222 L16.9028634,11.9966222 L16.9028634,14.0835111 L16.9659807,14.0835111 C17.5953876,12.8828444 19.1329324,11.6170667 21.4261186,11.6170667 C26.1991945,11.6170667 27.0804083,14.7801778 27.0804083,18.8917333 L27.0804083,27.2681778 Z M7.06959448,9.90928889 C5.5587531,9.90928889 4.33613241,8.67595556 4.33613241,7.15684444 C4.33613241,5.63884444 5.5587531,4.40573333 7.06959448,4.40573333 C8.57668414,4.40573333 9.80129103,5.63884444 9.80129103,7.15684444 C9.80129103,8.67595556 8.57668414,9.90928889 7.06959448,9.90928889 L7.06959448,9.90928889 Z M4.71174621,27.2681778 L9.42567724,27.2681778 L9.42567724,11.9966222 L4.71174621,11.9966222 L4.71174621,27.2681778 Z M29.4278841,-4.44444444e-05 L2.34573241,-4.44444444e-05 C1.05160828,-4.44444444e-05 2.20689655e-05,1.03284444 2.20689655e-05,2.30573333 L2.20689655e-05,29.6910667 C2.20689655e-05,30.9655111 1.05160828,31.9999556 2.34573241,31.9999556 L29.4278841,31.9999556 C30.7242152,31.9999556 31.7802152,30.9655111 31.7802152,29.6910667 L31.7802152,2.30573333 C31.7802152,1.03284444 30.7242152,-4.44444444e-05 29.4278841,-4.44444444e-05 L29.4278841,-4.44444444e-05 Z" id="Fill-1" fill="#006A99" mask="url(#mask-2)"></path>
            </g>
        </g>
    </g>
</svg>