<svg id="Layer_1" data-name="Layer 1" xmlns="http://www.w3.org/2000/svg" viewBox="0 0 1500 1500"><defs><style>.cls-1{fill:#433d3f;}</style></defs><title>icons-epi</title><path class="cls-1" d="M709.47,923.78l-15.68,91.9a17.12,17.12,0,0,0,16.64,21.06h93.88a17.11,17.11,0,0,0,16.62-21.06l-16.4-91.9a75.11,75.11,0,0,0,33.41-62.5c0-41.51-34.54-78.37-80.58-78.37s-81.3,36.85-81.3,78.37A75.15,75.15,0,0,0,709.47,923.78Zm47.89-106.66c27.69,0,46.35,21.55,46.39,44.16a41,41,0,0,1-25.38,37.9,17.1,17.1,0,0,0-10.13,19.76l14.44,83.59H732.07l13.69-83.59a17.07,17.07,0,0,0-10.1-19.76,41,41,0,0,1-25.4-37.9C710.3,838.67,729.68,817.12,757.37,817.12Zm258.34-134.33H988.55v-76a15.6,15.6,0,0,0-.11-1.88c-.68-26.1-3.16-49.87-12.21-74a17.1,17.1,0,0,0-32,12c7.28,19.46,9.47,39,10.08,64.36,0,.39,0,.8.07,1.18v74.39H919.59v-76.7c-.22-35-16.37-74.09-44.24-106.06-27.83-31.77-68.73-56.35-118.19-56.35A162.39,162.39,0,0,0,594.77,606.09v76.7H560v-75.1c.05-.44.08-.87.1-1.3,3-106.27,90.1-191.56,197.09-191.54,93.68.23,137.06,51,153.54,72.85a17.1,17.1,0,1,0,27.55-20.26c-18.8-26-73.74-87-181.09-86.78-125,0-226.75,99-231.21,222.91a16.75,16.75,0,0,0-.17,2.34v76.89H498.61a30.32,30.32,0,0,0-30.31,30.33v396.64a30.3,30.3,0,0,0,30.31,30.3l517.1,0a30.31,30.31,0,0,0,30.3-30.32l0-396.64A30.34,30.34,0,0,0,1015.71,682.79ZM629,606.09A128.38,128.38,0,0,1,757.16,477.87c37.71,0,69.45,18.58,92.51,44.72,23,26,35.92,59.5,35.71,83.5v76.7H629Zm382.87,499.79H502.49V717h509.35Z"/></svg>