<svg id="Layer_1" data-name="Layer 1" xmlns="http://www.w3.org/2000/svg" viewBox="0 0 1500 1500"><defs><style>.cls-1{fill:#433d3f;}</style></defs><title>icons-epi</title><path class="cls-1" d="M849.76,469.45a14.92,14.92,0,0,0-2.18,29.76C967.58,508,1089,601.38,1089,762.78a327.5,327.5,0,0,1-11.69,86.71c-2.75-26.75-21.38-48.38-39.33-59a77,77,0,1,0-119.49,2.05c-14.33,8-31.54,22.14-35.79,48.68A152.08,152.08,0,0,0,846.83,813a117.56,117.56,0,1,0-171.6,0,152.21,152.21,0,0,0-35.9,28.23c-4.26-26.54-21.44-40.7-35.78-48.68A77,77,0,1,0,484,790.51c-18.62,11-38,33.88-39.57,62a327.09,327.09,0,0,1-12.52-87.89c.64-253,168.23-316.87,272.37-328.55l7.56,29.21a14.92,14.92,0,0,0,26.34,5.24l83.32-110.25a14.93,14.93,0,0,0-6-22.69L688.84,282.82a14.91,14.91,0,0,0-20.3,17.64L676.35,329C603.51,351.22,403,494.48,402.12,762.36c0,.14,0,.28,0,.43s0,.45,0,.68,0,.49,0,.75l0,.05c.8,196.94,161.24,356.93,358.37,356.93,197.63,0,358.4-160.79,358.4-358.41C1118.88,583.19,983.5,479.28,849.76,469.45Zm-151.83-116a14.91,14.91,0,0,0,11-18.46l-3.4-12.42,80.77,34.93L733,428l-2.53-9.71a14.92,14.92,0,0,0-13.1-11.11,16.07,16.07,0,0,0-3.19.06l-7.94,1c-36.61,4.33-106,12.54-165.07,57C608,375.77,696.56,353.74,697.93,353.42ZM544.61,695.95a47.16,47.16,0,1,1-47.17,47.17A47.23,47.23,0,0,1,544.61,695.95ZM610.56,1055c-.69-.36-1.37-.7-2.05-1.06-3.12-1.62-6.21-3.32-9.29-5.05-1.79-1-3.57-2-5.33-3.07-4.73-2.78-9.35-5.7-13.9-8.68q-3.95-2.62-7.8-5.35-4.79-3.32-9.43-6.79-4.82-3.65-9.49-7.47c-1.19-.95-2.33-1.92-3.48-2.88a331.06,331.06,0,0,1-75.69-91.1V856.18c0-21.57,20.4-40,31.5-42.9a14.67,14.67,0,0,0,3.93-1.72,76.21,76.21,0,0,0,67.43,1.34l1,.42c17.88,7.71,32.67,16.1,32.67,40.58Zm62.75-322.1A87.72,87.72,0,1,1,761,820.63,87.83,87.83,0,0,1,673.31,732.92ZM881.68,1068.1c-2.31.92-4.6,1.86-6.93,2.74l-2.87,1c-3.22,1.17-6.48,2.24-9.75,3.31-2.4.77-4.79,1.54-7.21,2.27-1.84.55-3.71,1.06-5.56,1.59-3.55,1-7.11,2-10.68,2.83l-2.15.5a330.81,330.81,0,0,1-87.33,8.7c-.92,0-1.84,0-2.74-.07-4-.16-8-.45-12.06-.77-1.27-.1-2.56-.17-3.82-.29-3.94-.35-7.89-.82-11.83-1.33-1.27-.16-2.55-.31-3.81-.48-4-.55-8-1.21-11.93-1.91-1.17-.2-2.36-.41-3.52-.63q-6.07-1.16-12.13-2.55c-1-.23-2.1-.47-3.15-.72-4.12-1-8.23-2.06-12.32-3.2l-2.81-.8q-6.25-1.81-12.45-3.89l-2.57-.87q-6.23-2.14-12.43-4.54l-1.21-.48V914.11c0-44.07,35.59-68.87,60-80.7a116.46,116.46,0,0,0,121.34,0c24.38,11.81,60,36.61,60,80.69Zm95.79-372.15a47.16,47.16,0,1,1-47.16,47.17A47.22,47.22,0,0,1,977.47,695.95ZM1048,921.61a330.76,330.76,0,0,1-136.48,132.82V853.9c0-24.49,14.8-32.88,32.67-40.58l1-.42a76.21,76.21,0,0,0,67.43-1.34,14.45,14.45,0,0,0,3.93,1.72c11.1,2.87,31.48,21.33,31.48,42.9ZM833.75,888.87a14.92,14.92,0,0,0-14.92,14.92v133.55a14.92,14.92,0,1,0,29.83,0V903.78A14.92,14.92,0,0,0,833.75,888.87Zm-145.44,0a14.92,14.92,0,0,0-14.92,14.92v133.55a14.92,14.92,0,1,0,29.83,0V903.78A14.91,14.91,0,0,0,688.32,888.87Z"/></svg>