<?xml version="1.0" encoding="UTF-8"?>
<svg width="36px" height="30px" viewBox="0 0 36 30" version="1.1" xmlns="http://www.w3.org/2000/svg" xmlns:xlink="http://www.w3.org/1999/xlink">
    <!-- Generator: Sketch 47.1 (45422) - http://www.bohemiancoding.com/sketch -->
    <title>Twitter_Logo_Blue</title>
    <desc>Created with Sketch.</desc>
    <defs></defs>
    <g id="Page-1" stroke="none" stroke-width="1" fill="none" fill-rule="evenodd">
        <g id="Follow-Ericsson-Networks-all-icons" transform="translate(-515.000000, -333.000000)" fill-rule="nonzero" fill="#1DA1F2">
            <g id="Twitter_Logo_Blue" transform="translate(515.193548, 333.000000)">
                <path d="M11.2604129,30 C24.7723355,30 32.1627871,18.457204 32.1627871,8.44734334 C32.1627871,8.11949012 32.1627871,7.79311373 32.1413032,7.46821415 C33.5790488,6.39591389 34.8201349,5.0682096 35.8064516,3.54726695 C34.4656848,4.15985296 33.0433813,4.56158667 31.5870194,4.73905768 C33.1206011,3.79239195 34.2683834,2.30345091 34.8167613,0.549329918 C33.374703,1.43166165 31.7970544,2.05348504 30.1518968,2.38796618 C27.874725,-0.108747862 24.2563206,-0.719827401 21.325677,0.89738587 C18.3950334,2.51459914 16.8809874,5.95791214 17.632529,9.29651269 C11.7257474,8.99118024 6.22241047,6.11445104 2.49212903,1.38225429 C0.542285496,4.84338696 1.53822781,9.27119929 4.76655484,11.4940153 C3.59746159,11.4582875 2.4538582,11.1331009 1.43225806,10.5458993 C1.43225806,10.5769124 1.43225806,10.6094024 1.43225806,10.6418923 C1.433215,14.2476765 3.89825052,17.3533358 7.326,18.0673245 C6.24445839,18.3714601 5.10969607,18.4159186 4.00889032,18.1972844 C4.97129316,21.282978 7.72928744,23.3968353 10.872271,23.4577039 C8.27091083,25.5657586 5.05738846,26.7101373 1.7487871,26.7066997 C1.16428769,26.7055427 0.58035679,26.669052 0,26.5974153 C3.359556,28.8204322 7.26858565,29.9995819 11.2604129,29.9940927" id="Shape"></path>
            </g>
        </g>
    </g>
</svg>