<svg xmlns="http://www.w3.org/2000/svg" viewBox="0 0 212.6 212.6"><style>.st0{fill:#f88900}</style><path class="st0" d="M137.3 86.6c-.6-.9-1.8-1.2-2.8-.6-.9.6-1.2 1.8-.6 2.8 3.2 5.1 5.1 11.1 5.1 17.5 0 18.1-14.7 32.7-32.7 32.7-18.1 0-32.7-14.7-32.7-32.7 0-18.1 14.7-32.7 32.7-32.7 9 0 17.1 3.6 23.1 9.5.8.8 2.1.8 2.8 0 .8-.8.8-2.1 0-2.8-6.6-6.6-15.8-10.7-25.9-10.7-20.3 0-36.7 16.4-36.7 36.7 0 20.3 16.4 36.7 36.7 36.7 20.3 0 36.7-16.4 36.7-36.7 0-7.2-2.1-14-5.7-19.7zM95 88.7v35.2c0 3.5 2.5 3.5 3.7 2.3 1.2-1.2 21.7-15.2 22.9-16.4 1-1 1.7-2.1 1.7-3.5s-.8-2.5-1.7-3.5c-.6-.6-22.5-16-22.9-16.4-1.3-1.2-3.7-1.3-3.7 2.3z"/></svg>