<?xml version="1.0" encoding="UTF-8"?>
<svg width="44px" height="30px" viewBox="0 0 44 30" version="1.1" xmlns="http://www.w3.org/2000/svg" xmlns:xlink="http://www.w3.org/1999/xlink">
    <!-- Generator: Sketch 47.1 (45422) - http://www.bohemiancoding.com/sketch -->
    <title>youtube-svg</title>
    <desc>Created with Sketch.</desc>
    <defs></defs>
    <g id="Page-1" stroke="none" stroke-width="1" fill="none" fill-rule="evenodd">
        <g id="Follow-Ericsson-Networks-all-icons" transform="translate(-663.000000, -333.000000)">
            <g id="youtube-svg" transform="translate(663.000000, 333.000000)">
                <g id="Layer_x0020_1" transform="translate(0.659341, 0.000000)">
                    <path d="M40.0413815,1.98866927 C39.1830443,1.21538981 38.0959884,0.708248717 36.9070926,0.577878747 C34.3230358,0.29083934 31.7155479,0.146357735 29.099416,0.0739178213 C26.5000719,0.00197540456 23.8895887,0.00197540456 21.2849011,0.00346593199 C18.6805837,0.00197541578 16.07027,0.00197541578 13.470584,0.0739178213 C10.8541526,0.146356894 8.24589325,0.290837938 5.66036421,0.577878747 C4.4726157,0.708315461 3.38602606,1.21568707 2.52847724,1.98930026 C1.6763821,2.75794408 1.0503325,3.79024159 0.776458399,4.97688932 C0.406729356,6.56753589 0.219696075,8.22713652 0.125211617,9.89703203 C0.0303598116,11.5739974 0.0279904239,13.229728 0.0279904239,14.8371139 C0.0279904239,16.4423685 0.0280237987,18.0959425 0.120639278,19.7739146 C0.212821036,21.4430613 0.397584678,23.1026003 0.767511805,24.6935245 C1.04302229,25.8806714 1.66937115,26.913269 2.52140129,27.6818707 C3.37843865,28.455052 4.46395733,28.9621258 5.65136675,29.0925631 C8.23722641,29.3795717 10.8454829,29.5240505 13.4619256,29.5964567 C16.0615693,29.6683991 18.6718942,29.6683991 21.2765818,29.6669086 C23.8824336,29.6683991 26.4927105,29.6683991 29.092001,29.5964567 C31.708065,29.5240507 34.3155614,29.37957 36.9011187,29.0925631 C38.0882992,28.9621264 39.1735862,28.4552175 40.0309994,27.682269 C40.8834619,26.9137261 41.5106785,25.8810275 41.7879916,24.6935301 C42.1562851,23.1025526 42.3410804,21.4430025 42.4335981,19.7739202 C42.5248788,18.1279573 42.5256462,16.4581908 42.5255129,14.8371195 L42.5272817,14.8371195 L42.5272817,14.7557373 L42.5255129,14.7557373 C42.5255796,11.534908 42.5255796,8.1236053 41.7969706,4.97692381 C41.5214602,3.78974325 40.8944105,2.75724383 40.0413801,1.98868974 L40.0413815,1.98866927 Z" id="Shape" fill="#E42B26"></path>
                    <path d="M29.3414129,14.0432082 C26.9201586,12.7882907 24.5151805,11.5428155 22.1130706,10.2988575 C20.116314,9.26480162 18.1213658,8.23167401 16.1206248,7.19497081 L15.4601011,6.85271599 L15.4601011,7.59108654 L15.4601011,21.2413171 L15.4601011,21.9778312 L16.1188559,21.6391856 C18.3286455,20.5031793 20.5289972,19.3713797 22.7292641,18.2392687 L29.339644,14.8371924 L30.109103,14.4411131 L29.3414129,14.043211 L29.3414129,14.0432082 Z" id="Shape" fill="#FFFFFE"></path>
                </g>
            </g>
        </g>
    </g>
</svg>