<?xml version="1.0" encoding="utf-8"?>
<!-- Generator: Adobe Illustrator 18.1.1, SVG Export Plug-In . SVG Version: 6.00 Build 0)  -->
<svg version="1.1" id="Layer_1" xmlns="http://www.w3.org/2000/svg" xmlns:xlink="http://www.w3.org/1999/xlink" x="0px" y="0px"
	 viewBox="0 0 612 792" enable-background="new 0 0 612 792" xml:space="preserve">
<g>
	<path fill="#63A70A" d="M198.7,220.4l-50.2-86.9c-12.4,7.5-24.3,15.9-35.5,25.1l64.6,76.7C184.3,229.8,191.3,224.9,198.7,220.4z"/>
	<path fill="#63A70A" d="M102.1,367.4L3.2,350.1c-2,12.9-3,26.1-3.2,39.2h100.3C100.6,382.1,101.1,374.6,102.1,367.4z"/>
	<path fill="#63A70A" d="M124.7,298.6l-86.9-50.2c-6.7,11.9-12.4,24.6-17.4,37.3l94.4,34.3C117.5,312.8,121,305.6,124.7,298.6z"/>
	<path fill="#63A70A" d="M144.6,268.3l-76.7-64.6c-8.9,10.9-16.9,22.4-24.1,34.3l86.9,50.2C134.9,281.5,139.6,274.8,144.6,268.3z"/>
	<path fill="#63A70A" d="M169.6,242l-64.6-76.7c-5.2,4.7-10.4,9.4-15.4,14.4c-5.2,5.2-9.9,10.4-14.7,15.9l76.7,64.6
		C157.2,253.7,163.2,247.7,169.6,242z"/>
	<path fill="#63A70A" d="M110.3,332.2l-94.4-34.3c-4.2,12.7-7.7,25.6-10.2,39l98.6,17.4C105.8,346.6,108,339.4,110.3,332.2z"/>
	<path fill="#63A70A" d="M132.4,506.5l-86.9,50.2c6.5,10.2,13.4,20.1,20.9,29.6l77-64.6C139.3,517,135.6,511.7,132.4,506.5z"/>
	<path fill="#63A70A" d="M154.2,535.3l-76.7,64.6c4,4.5,7.9,8.7,12.2,12.9c4.2,4.2,8.4,8.2,12.9,12.2l64.6-76.7
		C162.7,543.8,158.5,539.6,154.2,535.3z"/>
	<path fill="#63A70A" d="M100.3,403.7H0c0.2,12.9,1.5,25.8,3.2,38.5l98.9-17.4C101.1,417.9,100.6,410.9,100.3,403.7z"/>
	<path fill="#63A70A" d="M104.8,439.7L6,457.1c2.5,12.4,5.7,24.6,9.7,36.5l94.4-34.3C108,452.9,106.3,446.4,104.8,439.7z"/>
	<path fill="#63A70A" d="M115.5,474.2l-94.4,34.3c4.5,11.4,9.7,22.6,15.6,33.5l86.9-50.2C120.7,486.4,118,480.4,115.5,474.2z"/>
	<path fill="#63A70A" d="M356.2,94c-15.2-2.5-30.8-3.7-46.4-4v100.1c9.9,0.2,19.6,1,29.1,2.5L356.2,94z"/>
	<path fill="#63A70A" d="M462.7,262.4l76.7-64.6c-5.5-6.2-10.9-12.4-16.9-18.4c-5.7-5.7-11.7-11.2-17.6-16.4l-64.6,76.7
		C448.3,247,455.8,254.4,462.7,262.4z"/>
	<path fill="#63A70A" d="M231.2,204.3L197,109.9c-13.9,5.2-27.3,11.4-40.2,18.9l50.2,86.9C214.8,211.2,222.8,207.5,231.2,204.3z"/>
	<path fill="#63A70A" d="M436.6,237l64.3-76.7c-12.7-10.4-25.8-19.9-39.7-28.1l-50.2,86.9C420.3,224.4,428.7,230.3,436.6,237z"/>
	<path fill="#63A70A" d="M483.6,291.7l86.9-50.2c-8.2-14.2-17.9-27.8-28.3-40.5l-76.7,64.3C471.9,273.8,478.1,282.5,483.6,291.7z"/>
	<path fill="#63A70A" d="M302.3,190.1V90c-15.4,0.2-30.8,1.5-45.7,4l17.4,98.6C283.4,191.1,292.8,190.3,302.3,190.1z"/>
	<path fill="#63A70A" d="M407.1,216.7l50.2-86.9c-14.2-7.9-28.6-14.9-43.7-20.4l-34.3,94.4C389,207.2,398.1,211.7,407.1,216.7z"/>
	<path fill="#63A70A" d="M266.3,194.1l-17.4-98.6c-14.9,2.7-29.6,6.7-43.7,11.7l34.3,94.4C248.1,198.3,257.1,195.8,266.3,194.1z"/>
	<path fill="#63A70A" d="M181.1,559.7l-64.6,77c9.2,7.2,18.6,13.9,28.3,19.9l50.2-86.9C190.3,566.4,185.5,563.2,181.1,559.7z"/>
	<path fill="#63A70A" d="M374.1,201.8l34.3-94.4c-14.9-5.2-30.3-9.4-45.9-12.2L345,193.8C354.9,195.8,364.6,198.3,374.1,201.8z"/>
	<path fill="#63A70A" d="M497.7,321l46.2-13.2l49.2-17.9c-5.7-15.4-12.7-30.6-20.9-45l-86.9,50.2C490.3,303.6,494.3,312,497.7,321z"
		/>
	<path fill="#63A70A" d="M418.8,568.4l50.2,86.9c8.2-5.2,16.1-10.7,23.8-16.6l-64.6-77C425.2,563.9,422.2,566.1,418.8,568.4z"/>
	<path fill="#63A70A" d="M263,699.3c10.7,1.5,21.4,2.5,32,2.7V601.7c-5-0.2-9.9-0.7-14.7-1.2L263,699.3z"/>
	<path fill="#63A70A" d="M352.4,596.7l17.4,98.9c9.9-2.2,19.9-4.7,29.8-7.9l-34.3-94.4C361.1,594.7,356.9,595.7,352.4,596.7z"/>
	<path fill="#63A70A" d="M490.3,487.9l86.9,50.2c4.2-7.9,7.9-15.9,11.4-24.3l-94.4-34.3C493,482.4,491.8,485.2,490.3,487.9z"/>
	<path fill="#63A70A" d="M447.3,545.8l64.6,77c3.7-3.2,7.2-6.7,10.7-10.2c3.2-3.2,6.2-6.5,9.4-9.7l-77-64.6
		C452.5,540.8,449.8,543.3,447.3,545.8z"/>
	<path fill="#63A70A" d="M316.7,601.9V702c10.7-0.2,21.1-1.2,31.3-2.7l-17.4-98.9C326.1,601.2,321.4,601.7,316.7,601.9z"/>
	<path fill="#63A70A" d="M471.4,518.9l77,64.6c5.7-7.2,10.9-14.9,15.9-22.6l-86.9-50.2C475.4,513.5,473.4,516.2,471.4,518.9z"/>
	<path fill="#63A70A" d="M211.6,579.1L161.4,666c9.9,5.5,20.1,10.2,30.8,14.4l34.3-94.4C221.3,584,216.3,581.5,211.6,579.1z"/>
	<path fill="#63A70A" d="M510.9,418.6l98.9,17.4c1-8.2,1.7-16.6,2.2-25.1H511.7C511.4,413.4,511.2,416.1,510.9,418.6z"/>
	<path fill="#63A70A" d="M387,585.5l34.3,94.4c9.2-3.7,18.4-7.9,27.1-12.7l-50.2-86.9C394.4,582,390.7,583.8,387,585.5z"/>
	<path fill="#63A70A" d="M210.9,687.1c10.4,3.5,21.1,6.2,32,8.4l17.4-98.9c-5-1.2-10.2-2.5-15.2-4L210.9,687.1z"/>
	<path fill="#63A70A" d="M503.7,454.1l94.4,34.3c2.5-8.2,5-16.6,6.7-25.1l-98.9-17.4C505.2,448.7,504.5,451.4,503.7,454.1z"/>
	<path fill="#63A70A" d="M343,402.2c0.2-1.5,0.5-3,1-4.7l62.6-13.7l93.1-20.1l0,0l2.5-0.5l7-1.5c1.2,6.7,2,13.4,2.5,20.4H612
		c-0.5-13.9-2.2-27.3-4.5-40.7l0,0c-0.5-3-1-6-1.7-8.9c-0.7-4.2-1.7-8.2-2.7-12.2h-0.2c0-0.2-0.2-0.7-0.2-1l-98.1,21.6l0,0l-4.7,1
		l-145.3,31.8l2.5-1.2l-17.6,3.7l0,0l-0.2-0.2c-8.7-15.4-27.3-23.8-45.5-17.6c-1.7,0.5-3.5,1.2-5.2,1.7c-11.7,6-20.1,18.4-20.4,31.5
		c-1.2,26.3,22.4,44.7,45.9,39.2c6-1.2,11.4-4,15.9-7.5C336.6,418.1,341.3,410.7,343,402.2z"/>
</g>
</svg>
