<?xml version="1.0" encoding="utf-8"?>
<!-- Generator: Adobe Illustrator 19.1.0, SVG Export Plug-In . SVG Version: 6.00 Build 0)  -->
<svg version="1.1" id="Layer_1" xmlns="http://www.w3.org/2000/svg" xmlns:xlink="http://www.w3.org/1999/xlink" x="0px" y="0px"
	 viewBox="-145 57 500 500" style="enable-background:new -145 57 500 500;fill:#5C9532" xml:space="preserve">
<path d="M105,557c-137.9,0-250-112.1-250-250S-32.9,57,105,57s250,112.1,250,250S242.9,557,105,557z M105,66.7
	c-132.5,0-240.3,107.8-240.3,240.3s107.9,240.3,240.6,240.3S345.6,439.4,345.6,307S237.5,66.7,105,66.7L105,66.7z"/>
<path d="M-60.4,391.2c0.6,4.2,1.8,7.5,4.3,10s6.1,3.9,10.6,3.9c4.3,0,7.9-1.2,10.8-3.6c2.5-2.4,4.6-5.4,6.1-9s2.5-7.5,3.1-11.2
	c0.6-4.2,1-7.6,1.2-11l-0.3-0.3c-2.4,4.2-5.4,6.9-9.2,9c-3.9,2.1-8.2,3.1-12.8,3.1c-4.9,0-9.2-0.8-13.1-2.5c-3.9-1.5-7.5-3.9-10-6.9
	c-2.8-3.1-5.1-6.7-6.7-10.8s-2.4-9-2.4-14.2c0-4.9,0.8-9.4,2.4-13.9c1.5-4.2,3.9-7.9,6.9-11s6.7-5.7,11-7.5
	c4.3-1.8,9.2-2.5,14.9-2.5c7.2,0,13.1,1.2,17.6,4.2c4.6,2.8,8.2,6.7,11,11.2c2.5,4.9,4.6,10.6,5.7,16.9c1,6.4,1.5,13.3,1.5,20.8
	c0,6.1-0.8,12.4-2.1,18.5s-3.6,11.8-6.4,16.9c-3.1,5.1-6.9,9.2-11.8,12.5c-4.9,3.1-11,4.9-18.2,4.9c-4.2,0-7.9-0.8-11.5-2.1
	s-6.7-3.3-9.4-5.7c-2.8-2.4-5.1-5.4-6.7-8.8c-1.8-3.3-2.8-7.2-2.8-11.2h16.1L-60.4,391.2L-60.4,391.2z M-44.4,326.7
	c-3.1,0-5.7,0.6-7.9,1.8c-2.4,1-4.2,2.5-5.7,4.6s-2.5,4.2-3.3,6.7s-1,5.1-1,7.9s0.3,5.4,1,8.2c0.8,2.5,1.8,4.9,3.3,6.7
	c1.5,2.1,3.3,3.6,5.7,4.6c2.4,1.2,4.9,1.8,7.9,1.8s5.8-0.6,8.2-1.8s4.3-2.8,5.7-4.6c1.5-2.1,2.5-4.3,3.3-6.9
	c0.8-2.5,1.2-5.4,1.2-8.2s-0.6-5.4-1.2-7.9c-0.8-2.5-1.8-4.6-3.3-6.7c-1.5-1.8-3.3-3.3-5.7-4.6C-38.9,327.3-41.4,326.7-44.4,326.7
	L-44.4,326.7z"/>
<path d="M16,391.2c0.6,4.2,1.8,7.5,4.3,10s6.1,3.9,10.6,3.9c4.3,0,7.9-1.2,10.8-3.6c2.5-2.4,4.6-5.4,6.1-9s2.5-7.5,3.1-11.2
	c0.6-4.2,1-7.6,1.2-11l-0.3-0.3c-2.4,4.2-5.4,6.9-9.2,9s-8.2,3.1-12.8,3.1c-4.9,0-9.2-0.8-13.1-2.5c-3.9-1.5-7.5-3.9-10-6.9
	c-2.8-3.1-5.1-6.7-6.7-10.8s-2.4-9-2.4-14.2c0-4.9,0.8-9.4,2.4-13.9c1.5-4.2,3.9-7.9,6.9-11s6.7-5.7,11-7.5
	c4.3-1.8,9.2-2.5,14.9-2.5c7.2,0,13.1,1.2,17.6,4.2c4.6,2.8,8.2,6.7,11,11.2c2.5,4.9,4.6,10.6,5.7,16.9c1,6.4,1.5,13.3,1.5,20.8
	c0,6.1-0.8,12.4-2.1,18.5s-3.6,11.8-6.4,16.9c-3.1,5.1-6.9,9.2-11.8,12.5c-4.9,3.1-11,4.9-18.2,4.9c-4.2,0-7.9-0.8-11.5-2.1
	s-6.7-3.3-9.4-5.7c-2.8-2.4-5.1-5.4-6.7-8.8c-1.8-3.3-2.8-7.2-2.8-11.2H16L16,391.2L16,391.2z M31.9,326.7c-3.1,0-5.7,0.6-7.9,1.8
	c-2.4,1-4.2,2.5-5.7,4.6s-2.5,4.2-3.3,6.7s-1,5.1-1,7.9s0.3,5.4,1,8.2c0.8,2.5,1.8,4.9,3.3,6.7c1.5,2.1,3.3,3.6,5.7,4.6
	c2.4,1.2,4.9,1.8,7.9,1.8s5.8-0.6,8.2-1.8s4.3-2.8,5.7-4.6c1.5-2.1,2.5-4.3,3.3-6.9c0.8-2.5,1.2-5.4,1.2-8.2s-0.6-5.4-1.2-7.9
	c-0.8-2.5-1.8-4.6-3.3-6.7c-1.5-1.8-3.3-3.3-5.7-4.6C37.8,327.3,35,326.7,31.9,326.7L31.9,326.7z"/>
<path d="M91.1,391.2c0.6,4.2,1.8,7.5,4.3,10s6.1,3.9,10.6,3.9s7.9-1.2,10.8-3.6c2.5-2.4,4.6-5.4,6.1-9s2.5-7.5,3.1-11.2
	c0.6-4.2,1-7.6,1.2-11l-0.6-0.3c-2.4,4.2-5.4,6.9-9.2,9s-8.2,3.1-12.8,3.1c-4.9,0-9.2-0.8-13.1-2.5c-3.9-1.5-7.5-3.9-10-6.9
	c-2.8-3.1-5.1-6.7-6.7-10.8s-2.4-9-2.4-14.2c0-4.9,0.8-9.4,2.4-13.9c1.5-4.2,3.9-7.9,6.9-11s6.7-5.7,11-7.5
	c4.3-1.8,9.2-2.5,14.9-2.5c7.2,0,13.1,1.2,17.6,4.2c4.6,2.8,8.2,6.7,11,11.2c2.5,4.9,4.6,10.6,5.7,16.9c1,6.4,1.5,13.3,1.5,20.8
	c0,6.1-0.8,12.4-2.1,18.5s-3.6,11.8-6.4,16.9c-3.1,5.1-6.9,9.2-11.8,12.5c-4.9,3.1-11,4.9-18.2,4.9c-4.2,0-7.9-0.8-11.5-2.1
	s-6.7-3.3-9.4-5.7c-2.8-2.4-5.1-5.4-6.7-8.8c-1.8-3.3-2.8-7.2-2.8-11.2h16.4L91.1,391.2L91.1,391.2z M107.1,326.7
	c-3.1,0-5.7,0.6-7.9,1.8c-2.4,1-4.2,2.5-5.7,4.6s-2.5,4.2-3.3,6.7s-1,5.1-1,7.9s0.3,5.4,1,8.2c0.8,2.5,1.8,4.9,3.3,6.7
	c1.5,2.1,3.3,3.6,5.7,4.6c2.4,1.2,4.9,1.8,7.9,1.8s5.8-0.6,8.2-1.8s4.3-2.8,5.7-4.6c1.5-2.1,2.5-4.3,3.3-6.9
	c0.8-2.5,1.2-5.4,1.2-8.2s-0.6-5.4-1.2-7.9c-0.8-2.5-1.8-4.6-3.3-6.7c-1.5-1.8-3.3-3.3-5.7-4.6C112.9,327.3,110.1,326.7,107.1,326.7
	L107.1,326.7z"/>
<path d="M166.1,391.2c0.6,4.2,1.8,7.5,4.3,10s6.1,3.9,10.6,3.9s7.9-1.2,10.8-3.6c2.5-2.4,4.6-5.4,6.1-9s2.5-7.5,3.1-11.2
	c0.6-4.2,1-7.6,1.2-11l-0.6-0.3c-2.4,4.2-5.4,6.9-9.2,9s-8.2,3.1-12.8,3.1c-4.9,0-9.2-0.8-13.1-2.5c-3.9-1.5-7.5-3.9-10-6.9
	c-2.8-3.1-5.1-6.7-6.7-10.8s-2.4-9-2.4-14.2c0-4.9,0.8-9.4,2.4-13.9c1.5-4.2,3.9-7.9,6.9-11s6.7-5.7,11-7.5
	c4.3-1.8,9.2-2.5,14.9-2.5c7.2,0,13.1,1.2,17.6,4.2c4.6,2.8,8.2,6.7,11,11.2c2.5,4.9,4.6,10.6,5.7,16.9c1,6.4,1.5,13.3,1.5,20.8
	c0,6.1-0.8,12.4-2.1,18.5s-3.6,11.8-6.4,16.9c-3.1,5.1-6.9,9.2-11.8,12.5c-4.9,3.1-11,4.9-18.2,4.9c-4.2,0-7.9-0.8-11.5-2.1
	s-6.7-3.3-9.4-5.7c-2.8-2.4-5.1-5.4-6.7-8.8c-1.8-3.3-2.8-7.2-2.8-11.2h16.4L166.1,391.2L166.1,391.2z M182.1,326.7
	c-3.1,0-5.7,0.6-7.9,1.8c-2.4,1-4.2,2.5-5.7,4.6s-2.5,4.2-3.3,6.7s-1,5.1-1,7.9s0.3,5.4,1,8.2c0.8,2.5,1.8,4.9,3.3,6.7
	c1.5,2.1,3.3,3.6,5.7,4.6c2.4,1.2,4.9,1.8,7.9,1.8s5.8-0.6,8.2-1.8s4.3-2.8,5.7-4.6c1.5-2.1,2.5-4.3,3.3-6.9
	c0.8-2.5,1.2-5.4,1.2-8.2s-0.6-5.4-1.2-7.9c-0.8-2.5-1.8-4.6-3.3-6.7c-1.5-1.8-3.3-3.3-5.7-4.6C187.9,327.3,185.1,326.7,182.1,326.7
	L182.1,326.7z"/>
<path d="M238.1,358.5c-3.1,0-5.8-0.6-8.2-1.8c-2.4-1-4.2-2.5-5.4-4.6c-1.2-1.8-2.4-4.2-3.1-6.7c-0.6-2.5-1-5.1-1-8.2
	c0-2.8,0.3-5.4,1-7.9c0.8-2.5,1.8-4.9,3.1-6.7c1.5-1.8,3.3-3.3,5.4-4.6c2.4-1,4.9-1.8,7.9-1.8s5.7,0.6,7.9,1.8
	c2.4,1,4.2,2.5,5.4,4.6c1.5,1.8,2.5,4.2,3.1,6.7c0.8,2.5,1,5.1,1,7.9s-0.3,5.7-1,8.2c-0.6,2.5-1.5,4.6-3.1,6.7
	c-1.2,1.8-3.3,3.3-5.4,4.6C244,358,241.1,358.5,238.1,358.5L238.1,358.5z M229.9,337.6c0,2.1,0.3,3.9,0.6,5.7s0.8,3.3,1.2,4.3
	s1.5,2.4,2.5,3.1c1,0.8,2.4,1,3.9,1s2.8-0.3,3.9-1c1-0.8,1.8-1.8,2.5-3.1s1-2.8,1.5-4.3c0.3-1.8,0.6-3.6,0.6-5.7
	c0-1.8,0-3.6-0.3-5.1c-0.3-1.8-0.8-3.1-1.2-4.6c-0.6-1.2-1.5-2.4-2.5-3.3c-1-0.8-2.4-1.2-4.2-1.2c-1.5,0-2.8,0.6-4.2,1.2
	c-1,0.8-1.8,1.8-2.5,3.3c-0.6,1.2-1,2.8-1.2,4.6S229.9,335.8,229.9,337.6L229.9,337.6z M280.1,315.8h7.9l-40.8,78.5H239L280.1,315.8
	L280.1,315.8z M290.8,393.1c-3.1,0-5.8-0.6-8.2-1.8c-2.4-1-4.2-2.5-5.4-4.6c-1.2-1.8-2.4-4.2-3.1-6.7c-0.6-2.5-1-5.1-1-8.2
	c0-2.8,0.3-5.4,1-7.9c0.8-2.5,1.8-4.9,3.1-6.7c1.5-1.8,3.3-3.3,5.4-4.6c2.4-1,4.9-1.8,7.9-1.8s5.7,0.6,7.9,1.8
	c2.4,1,4.2,2.5,5.4,4.6c1.5,1.8,2.5,4.2,3.1,6.7c0.8,2.5,1,5.1,1,7.9s-0.3,5.7-1,8.2c-0.6,2.5-1.5,4.6-3.1,6.7
	c-1.2,1.8-3.3,3.3-5.4,4.6C296.8,392.7,294,393.1,290.8,393.1L290.8,393.1z M282.6,372.4c0,2.1,0.3,3.9,0.6,5.7s0.8,3.3,1.2,4.3
	s1.5,2.4,2.5,3.1c1,0.8,2.4,1,3.9,1s2.8-0.3,3.9-1c1-0.8,1.8-1.8,2.5-3.1c0.8-1.2,1-2.8,1.5-4.3c0.3-1.8,0.6-3.6,0.6-5.7
	c0-1.8,0-3.6-0.3-5.1c-0.3-1.8-0.8-3.1-1.2-4.6c-0.6-1.2-1.5-2.4-2.5-3.3c-1-0.8-2.4-1.2-4.2-1.2s-2.8,0.6-4.2,1.2
	c-1,0.8-1.8,1.8-2.5,3.3c-0.6,1.2-1,2.8-1.2,4.6C282.9,368.8,282.6,370.6,282.6,372.4L282.6,372.4z"/>
<path d="M29.2,261.6c0.6,4.2,1.8,7.6,4.3,10.3c2.5,2.5,6.1,3.9,10.6,3.9c4.6,0,8.2-1.2,10.8-3.6c2.5-2.4,4.9-5.4,6.1-9
	c1.5-3.6,2.5-7.5,3.1-11.5c0.6-4.2,1-7.6,1.2-11.2l0,0c-2.4,4.2-5.4,7.2-9.2,9.2c-3.9,2.1-8.2,3.1-12.8,3.1c-4.9,0-9.2-0.8-13.3-2.5
	c-3.9-1.5-7.5-4.2-10.3-6.9c-2.8-3.1-5.1-6.7-6.7-10.8c-1.5-4.3-2.4-9-2.4-14.3c0-4.9,0.8-9.7,2.4-13.9c1.5-4.3,3.9-7.9,6.9-11.2
	c3.1-3.1,6.7-5.7,11.2-7.5c4.3-1.8,9.4-2.5,14.9-2.5c7.2,0,13.3,1.2,17.9,4.2c4.6,2.8,8.5,6.7,11,11.5s4.6,10.6,5.7,17.2
	c1,6.7,1.5,13.6,1.5,21c0,6.1-0.8,12.4-2.1,18.8c-1.2,6.1-3.6,12.1-6.7,17.2s-6.9,9.2-12.1,12.5c-4.9,3.3-11,4.9-18.2,4.9
	c-4.2,0-7.9-0.8-11.5-2.1s-6.9-3.3-9.7-5.7c-2.8-2.5-5.1-5.4-6.9-8.8c-1.8-3.3-2.8-7.2-2.8-11.5h16.9L29.2,261.6L29.2,261.6z
	 M45.3,196.7c-3.1,0-5.7,0.6-7.9,1.8c-2.4,1-4.2,2.5-5.7,4.6s-2.5,4.2-3.3,6.7s-1,5.1-1,7.9s0.3,5.7,1,8.2c0.8,2.5,1.8,4.9,3.3,6.9
	s3.3,3.6,5.7,4.9c2.4,1.2,4.9,1.8,7.9,1.8s5.8-0.6,8.2-1.8s4.3-2.8,5.8-4.9s2.5-4.3,3.3-6.9c0.8-2.5,1.2-5.4,1.2-8.2
	s-0.6-5.4-1.2-7.9c-0.8-2.5-2.1-4.9-3.3-6.7c-1.5-1.8-3.3-3.3-5.8-4.6C51.1,197.3,48.3,196.7,45.3,196.7L45.3,196.7z"/>
<path d="M106.2,261.6c0.6,4.2,1.8,7.6,4.3,10.3c2.5,2.5,6.1,3.9,10.6,3.9c4.6,0,8.2-1.2,10.8-3.6c2.5-2.4,4.9-5.4,6.1-9
	c1.5-3.6,2.5-7.5,3.1-11.5c0.6-4.2,1-7.6,1.2-11.2l-0.3-0.3c-2.4,4.2-5.4,7.2-9.2,9.2c-3.9,2.1-8.2,3.1-12.8,3.1
	c-4.9,0-9.2-0.8-13.3-2.5c-3.9-1.5-7.5-4.2-10.3-6.9c-2.8-3.1-5.1-6.7-6.7-10.8c-1.5-4.3-2.4-9-2.4-14.3c0-4.9,0.8-9.7,2.4-13.9
	c1.5-4.3,3.9-7.9,6.9-11.2c3.1-3.1,6.7-5.7,11.2-7.5c4.3-1.8,9.4-2.5,14.9-2.5c7.2,0,13.3,1.2,17.9,4.2c4.6,2.8,8.5,6.7,11,11.5
	s4.6,10.6,5.7,17.2s1.5,13.6,1.5,21c0,6.1-0.8,12.4-2.1,18.8c-1.2,6.1-3.6,12.1-6.7,17.2s-6.9,9.2-12.1,12.5
	c-4.9,3.3-11,4.9-18.2,4.9c-4.2,0-7.9-0.8-11.5-2.1s-6.9-3.3-9.7-5.7c-2.8-2.5-5.1-5.4-6.9-8.8C90,269.9,89,266,89,261.7h17.2
	L106.2,261.6L106.2,261.6z M122.2,196.7c-3.1,0-5.7,0.6-7.9,1.8c-2.4,1-4.2,2.5-5.7,4.6s-2.5,4.2-3.3,6.7s-1,5.1-1,7.9
	c0,2.8,0.3,5.7,1,8.2s1.8,4.9,3.3,6.9c1.5,2.1,3.3,3.6,5.7,4.9s4.9,1.8,7.9,1.8s5.8-0.6,8.2-1.8s4.3-2.8,5.8-4.9s2.5-4.3,3.3-6.9
	s1.2-5.4,1.2-8.2c0-2.8-0.6-5.4-1.2-7.9s-2.1-4.9-3.3-6.7c-1.5-1.8-3.3-3.3-5.8-4.6C128.1,197.3,125.3,196.7,122.2,196.7
	L122.2,196.7z"/>
<path d="M162.5,267.8h20.6v20h-20.6V267.8z"/>
<path d="M-32.9,198.5l40.7,40.8l-40.7,40.7l-10-10l30.7-30.7l-30.7-30.8L-32.9,198.5z"/>
</svg>
